<?xml version="1.0" encoding="UTF-8" standalone="no"?>
<!DOCTYPE svg PUBLIC "-//W3C//DTD SVG 1.1//EN"
 "http://www.w3.org/Graphics/SVG/1.1/DTD/svg11.dtd">
<!-- Generated by graphviz version 2.48.0 (20210717.1556)
 -->
<!-- Title: Tree Pages: 1 -->
<svg width="772pt" height="789pt"
 viewBox="0.00 0.00 772.00 789.00" xmlns="http://www.w3.org/2000/svg" xmlns:xlink="http://www.w3.org/1999/xlink">
<g id="graph0" class="graph" transform="scale(1 1) rotate(0) translate(4 785)">
<title>Tree</title>
<polygon fill="white" stroke="transparent" points="-4,4 -4,-785 768,-785 768,4 -4,4"/>
<!-- 0 -->
<g id="node1" class="node">
<title>0</title>
<path fill="#ffffff" stroke="black" d="M278,-781C278,-781 189,-781 189,-781 183,-781 177,-775 177,-769 177,-769 177,-725 177,-725 177,-719 183,-713 189,-713 189,-713 278,-713 278,-713 284,-713 290,-719 290,-725 290,-725 290,-769 290,-769 290,-775 284,-781 278,-781"/>
<text text-anchor="start" x="194.5" y="-765.8" font-family="Helvetica,sans-Serif" font-size="14.00">x_2 ≤ &#45;0.092</text>
<text text-anchor="start" x="204.5" y="-750.8" font-family="Helvetica,sans-Serif" font-size="14.00">gini = 0.5</text>
<text text-anchor="start" x="187.5" y="-735.8" font-family="Helvetica,sans-Serif" font-size="14.00">samples = 100</text>
<text text-anchor="start" x="185" y="-720.8" font-family="Helvetica,sans-Serif" font-size="14.00">value = [50, 50]</text>
</g>
<!-- 1 -->
<g id="node2" class="node">
<title>1</title>
<path fill="#41a1e6" stroke="black" d="M211,-677C211,-677 130,-677 130,-677 124,-677 118,-671 118,-665 118,-665 118,-621 118,-621 118,-615 124,-609 130,-609 130,-609 211,-609 211,-609 217,-609 223,-615 223,-621 223,-621 223,-665 223,-665 223,-671 217,-677 211,-677"/>
<text text-anchor="start" x="133.5" y="-661.8" font-family="Helvetica,sans-Serif" font-size="14.00">x_1 ≤ 1.195</text>
<text text-anchor="start" x="134" y="-646.8" font-family="Helvetica,sans-Serif" font-size="14.00">gini = 0.071</text>
<text text-anchor="start" x="128.5" y="-631.8" font-family="Helvetica,sans-Serif" font-size="14.00">samples = 27</text>
<text text-anchor="start" x="126" y="-616.8" font-family="Helvetica,sans-Serif" font-size="14.00">value = [1, 26]</text>
</g>
<!-- 0&#45;&gt;1 -->
<g id="edge1" class="edge">
<title>0&#45;&gt;1</title>
<path fill="none" stroke="black" d="M213.05,-712.88C207.76,-704.33 202.01,-695.01 196.49,-686.07"/>
<polygon fill="black" stroke="black" points="199.3,-683.97 191.07,-677.3 193.34,-687.65 199.3,-683.97"/>
<text text-anchor="middle" x="185.32" y="-697.93" font-family="Helvetica,sans-Serif" font-size="14.00">True</text>
</g>
<!-- 6 -->
<g id="node7" class="node">
<title>6</title>
<path fill="#f2bf9a" stroke="black" d="M342,-677C342,-677 253,-677 253,-677 247,-677 241,-671 241,-665 241,-665 241,-621 241,-621 241,-615 247,-609 253,-609 253,-609 342,-609 342,-609 348,-609 354,-615 354,-621 354,-621 354,-665 354,-665 354,-671 348,-677 342,-677"/>
<text text-anchor="start" x="264.5" y="-661.8" font-family="Helvetica,sans-Serif" font-size="14.00">x_1 ≤ 1.36</text>
<text text-anchor="start" x="261" y="-646.8" font-family="Helvetica,sans-Serif" font-size="14.00">gini = 0.441</text>
<text text-anchor="start" x="255.5" y="-631.8" font-family="Helvetica,sans-Serif" font-size="14.00">samples = 73</text>
<text text-anchor="start" x="249" y="-616.8" font-family="Helvetica,sans-Serif" font-size="14.00">value = [49, 24]</text>
</g>
<!-- 0&#45;&gt;6 -->
<g id="edge6" class="edge">
<title>0&#45;&gt;6</title>
<path fill="none" stroke="black" d="M254.28,-712.88C259.7,-704.24 265.61,-694.82 271.28,-685.79"/>
<polygon fill="black" stroke="black" points="274.26,-687.63 276.61,-677.3 268.33,-683.91 274.26,-687.63"/>
<text text-anchor="middle" x="282.18" y="-697.97" font-family="Helvetica,sans-Serif" font-size="14.00">False</text>
</g>
<!-- 2 -->
<g id="node3" class="node">
<title>2</title>
<path fill="#399de5" stroke="black" d="M93,-565.5C93,-565.5 12,-565.5 12,-565.5 6,-565.5 0,-559.5 0,-553.5 0,-553.5 0,-524.5 0,-524.5 0,-518.5 6,-512.5 12,-512.5 12,-512.5 93,-512.5 93,-512.5 99,-512.5 105,-518.5 105,-524.5 105,-524.5 105,-553.5 105,-553.5 105,-559.5 99,-565.5 93,-565.5"/>
<text text-anchor="start" x="23.5" y="-550.3" font-family="Helvetica,sans-Serif" font-size="14.00">gini = 0.0</text>
<text text-anchor="start" x="10.5" y="-535.3" font-family="Helvetica,sans-Serif" font-size="14.00">samples = 19</text>
<text text-anchor="start" x="8" y="-520.3" font-family="Helvetica,sans-Serif" font-size="14.00">value = [0, 19]</text>
</g>
<!-- 1&#45;&gt;2 -->
<g id="edge2" class="edge">
<title>1&#45;&gt;2</title>
<path fill="none" stroke="black" d="M132.19,-608.88C118.58,-597.12 103.28,-583.89 89.75,-572.2"/>
<polygon fill="black" stroke="black" points="91.88,-569.41 82.02,-565.52 87.3,-574.71 91.88,-569.41"/>
</g>
<!-- 3 -->
<g id="node4" class="node">
<title>3</title>
<path fill="#55abe9" stroke="black" d="M208,-573C208,-573 135,-573 135,-573 129,-573 123,-567 123,-561 123,-561 123,-517 123,-517 123,-511 129,-505 135,-505 135,-505 208,-505 208,-505 214,-505 220,-511 220,-517 220,-517 220,-561 220,-561 220,-567 214,-573 208,-573"/>
<text text-anchor="start" x="136.5" y="-557.8" font-family="Helvetica,sans-Serif" font-size="14.00">x_2 ≤ &#45;0.43</text>
<text text-anchor="start" x="135" y="-542.8" font-family="Helvetica,sans-Serif" font-size="14.00">gini = 0.219</text>
<text text-anchor="start" x="133.5" y="-527.8" font-family="Helvetica,sans-Serif" font-size="14.00">samples = 8</text>
<text text-anchor="start" x="131" y="-512.8" font-family="Helvetica,sans-Serif" font-size="14.00">value = [1, 7]</text>
</g>
<!-- 1&#45;&gt;3 -->
<g id="edge3" class="edge">
<title>1&#45;&gt;3</title>
<path fill="none" stroke="black" d="M170.82,-608.88C170.9,-600.78 170.99,-591.98 171.07,-583.47"/>
<polygon fill="black" stroke="black" points="174.58,-583.33 171.17,-573.3 167.58,-583.26 174.58,-583.33"/>
</g>
<!-- 4 -->
<g id="node5" class="node">
<title>4</title>
<path fill="#e58139" stroke="black" d="M94,-461.5C94,-461.5 21,-461.5 21,-461.5 15,-461.5 9,-455.5 9,-449.5 9,-449.5 9,-420.5 9,-420.5 9,-414.5 15,-408.5 21,-408.5 21,-408.5 94,-408.5 94,-408.5 100,-408.5 106,-414.5 106,-420.5 106,-420.5 106,-449.5 106,-449.5 106,-455.5 100,-461.5 94,-461.5"/>
<text text-anchor="start" x="28.5" y="-446.3" font-family="Helvetica,sans-Serif" font-size="14.00">gini = 0.0</text>
<text text-anchor="start" x="19.5" y="-431.3" font-family="Helvetica,sans-Serif" font-size="14.00">samples = 1</text>
<text text-anchor="start" x="17" y="-416.3" font-family="Helvetica,sans-Serif" font-size="14.00">value = [1, 0]</text>
</g>
<!-- 3&#45;&gt;4 -->
<g id="edge4" class="edge">
<title>3&#45;&gt;4</title>
<path fill="none" stroke="black" d="M134.49,-504.88C121.34,-493.12 106.56,-479.89 93.49,-468.2"/>
<polygon fill="black" stroke="black" points="95.81,-465.58 86.02,-461.52 91.14,-470.8 95.81,-465.58"/>
</g>
<!-- 5 -->
<g id="node6" class="node">
<title>5</title>
<path fill="#399de5" stroke="black" d="M209,-461.5C209,-461.5 136,-461.5 136,-461.5 130,-461.5 124,-455.5 124,-449.5 124,-449.5 124,-420.5 124,-420.5 124,-414.5 130,-408.5 136,-408.5 136,-408.5 209,-408.5 209,-408.5 215,-408.5 221,-414.5 221,-420.5 221,-420.5 221,-449.5 221,-449.5 221,-455.5 215,-461.5 209,-461.5"/>
<text text-anchor="start" x="143.5" y="-446.3" font-family="Helvetica,sans-Serif" font-size="14.00">gini = 0.0</text>
<text text-anchor="start" x="134.5" y="-431.3" font-family="Helvetica,sans-Serif" font-size="14.00">samples = 7</text>
<text text-anchor="start" x="132" y="-416.3" font-family="Helvetica,sans-Serif" font-size="14.00">value = [0, 7]</text>
</g>
<!-- 3&#45;&gt;5 -->
<g id="edge5" class="edge">
<title>3&#45;&gt;5</title>
<path fill="none" stroke="black" d="M171.82,-504.88C171.93,-494.33 172.04,-482.6 172.15,-471.85"/>
<polygon fill="black" stroke="black" points="175.65,-471.55 172.25,-461.52 168.65,-471.49 175.65,-471.55"/>
</g>
<!-- 7 -->
<g id="node8" class="node">
<title>7</title>
<path fill="#eba069" stroke="black" d="M341,-573C341,-573 252,-573 252,-573 246,-573 240,-567 240,-561 240,-561 240,-517 240,-517 240,-511 246,-505 252,-505 252,-505 341,-505 341,-505 347,-505 353,-511 353,-517 353,-517 353,-561 353,-561 353,-567 347,-573 341,-573"/>
<text text-anchor="start" x="257.5" y="-557.8" font-family="Helvetica,sans-Serif" font-size="14.00">x_1 ≤ &#45;0.379</text>
<text text-anchor="start" x="260" y="-542.8" font-family="Helvetica,sans-Serif" font-size="14.00">gini = 0.316</text>
<text text-anchor="start" x="254.5" y="-527.8" font-family="Helvetica,sans-Serif" font-size="14.00">samples = 61</text>
<text text-anchor="start" x="248" y="-512.8" font-family="Helvetica,sans-Serif" font-size="14.00">value = [49, 12]</text>
</g>
<!-- 6&#45;&gt;7 -->
<g id="edge7" class="edge">
<title>6&#45;&gt;7</title>
<path fill="none" stroke="black" d="M297.18,-608.88C297.1,-600.78 297.01,-591.98 296.93,-583.47"/>
<polygon fill="black" stroke="black" points="300.42,-583.26 296.83,-573.3 293.42,-583.33 300.42,-583.26"/>
</g>
<!-- 24 -->
<g id="node25" class="node">
<title>24</title>
<path fill="#399de5" stroke="black" d="M464,-565.5C464,-565.5 383,-565.5 383,-565.5 377,-565.5 371,-559.5 371,-553.5 371,-553.5 371,-524.5 371,-524.5 371,-518.5 377,-512.5 383,-512.5 383,-512.5 464,-512.5 464,-512.5 470,-512.5 476,-518.5 476,-524.5 476,-524.5 476,-553.5 476,-553.5 476,-559.5 470,-565.5 464,-565.5"/>
<text text-anchor="start" x="394.5" y="-550.3" font-family="Helvetica,sans-Serif" font-size="14.00">gini = 0.0</text>
<text text-anchor="start" x="381.5" y="-535.3" font-family="Helvetica,sans-Serif" font-size="14.00">samples = 12</text>
<text text-anchor="start" x="379" y="-520.3" font-family="Helvetica,sans-Serif" font-size="14.00">value = [0, 12]</text>
</g>
<!-- 6&#45;&gt;24 -->
<g id="edge24" class="edge">
<title>6&#45;&gt;24</title>
<path fill="none" stroke="black" d="M338.41,-608.88C353.08,-597.01 369.58,-583.65 384.12,-571.88"/>
<polygon fill="black" stroke="black" points="386.41,-574.53 391.98,-565.52 382,-569.09 386.41,-574.53"/>
</g>
<!-- 8 -->
<g id="node9" class="node">
<title>8</title>
<path fill="#e58139" stroke="black" d="M335,-461.5C335,-461.5 254,-461.5 254,-461.5 248,-461.5 242,-455.5 242,-449.5 242,-449.5 242,-420.5 242,-420.5 242,-414.5 248,-408.5 254,-408.5 254,-408.5 335,-408.5 335,-408.5 341,-408.5 347,-414.5 347,-420.5 347,-420.5 347,-449.5 347,-449.5 347,-455.5 341,-461.5 335,-461.5"/>
<text text-anchor="start" x="265.5" y="-446.3" font-family="Helvetica,sans-Serif" font-size="14.00">gini = 0.0</text>
<text text-anchor="start" x="252.5" y="-431.3" font-family="Helvetica,sans-Serif" font-size="14.00">samples = 22</text>
<text text-anchor="start" x="250" y="-416.3" font-family="Helvetica,sans-Serif" font-size="14.00">value = [22, 0]</text>
</g>
<!-- 7&#45;&gt;8 -->
<g id="edge8" class="edge">
<title>7&#45;&gt;8</title>
<path fill="none" stroke="black" d="M295.85,-504.88C295.64,-494.22 295.41,-482.35 295.2,-471.52"/>
<polygon fill="black" stroke="black" points="298.7,-471.45 295,-461.52 291.7,-471.59 298.7,-471.45"/>
</g>
<!-- 9 -->
<g id="node10" class="node">
<title>9</title>
<path fill="#f1b991" stroke="black" d="M466,-469C466,-469 377,-469 377,-469 371,-469 365,-463 365,-457 365,-457 365,-413 365,-413 365,-407 371,-401 377,-401 377,-401 466,-401 466,-401 472,-401 478,-407 478,-413 478,-413 478,-457 478,-457 478,-463 472,-469 466,-469"/>
<text text-anchor="start" x="384.5" y="-453.8" font-family="Helvetica,sans-Serif" font-size="14.00">x_1 ≤ 0.466</text>
<text text-anchor="start" x="385" y="-438.8" font-family="Helvetica,sans-Serif" font-size="14.00">gini = 0.426</text>
<text text-anchor="start" x="379.5" y="-423.8" font-family="Helvetica,sans-Serif" font-size="14.00">samples = 39</text>
<text text-anchor="start" x="373" y="-408.8" font-family="Helvetica,sans-Serif" font-size="14.00">value = [27, 12]</text>
</g>
<!-- 7&#45;&gt;9 -->
<g id="edge9" class="edge">
<title>7&#45;&gt;9</title>
<path fill="none" stroke="black" d="M337.08,-504.88C348.44,-495.62 360.89,-485.45 372.67,-475.85"/>
<polygon fill="black" stroke="black" points="375.16,-478.33 380.69,-469.3 370.73,-472.91 375.16,-478.33"/>
</g>
<!-- 10 -->
<g id="node11" class="node">
<title>10</title>
<path fill="#ffffff" stroke="black" d="M402,-365C402,-365 313,-365 313,-365 307,-365 301,-359 301,-353 301,-353 301,-309 301,-309 301,-303 307,-297 313,-297 313,-297 402,-297 402,-297 408,-297 414,-303 414,-309 414,-309 414,-353 414,-353 414,-359 408,-365 402,-365"/>
<text text-anchor="start" x="320.5" y="-349.8" font-family="Helvetica,sans-Serif" font-size="14.00">x_2 ≤ 0.769</text>
<text text-anchor="start" x="328.5" y="-334.8" font-family="Helvetica,sans-Serif" font-size="14.00">gini = 0.5</text>
<text text-anchor="start" x="315.5" y="-319.8" font-family="Helvetica,sans-Serif" font-size="14.00">samples = 20</text>
<text text-anchor="start" x="309" y="-304.8" font-family="Helvetica,sans-Serif" font-size="14.00">value = [10, 10]</text>
</g>
<!-- 9&#45;&gt;10 -->
<g id="edge10" class="edge">
<title>9&#45;&gt;10</title>
<path fill="none" stroke="black" d="M400.72,-400.88C395.3,-392.24 389.39,-382.82 383.72,-373.79"/>
<polygon fill="black" stroke="black" points="386.67,-371.91 378.39,-365.3 380.74,-375.63 386.67,-371.91"/>
</g>
<!-- 17 -->
<g id="node18" class="node">
<title>17</title>
<path fill="#e89050" stroke="black" d="M525,-365C525,-365 444,-365 444,-365 438,-365 432,-359 432,-353 432,-353 432,-309 432,-309 432,-303 438,-297 444,-297 444,-297 525,-297 525,-297 531,-297 537,-303 537,-309 537,-309 537,-353 537,-353 537,-359 531,-365 525,-365"/>
<text text-anchor="start" x="447.5" y="-349.8" font-family="Helvetica,sans-Serif" font-size="14.00">x_2 ≤ 0.054</text>
<text text-anchor="start" x="448" y="-334.8" font-family="Helvetica,sans-Serif" font-size="14.00">gini = 0.188</text>
<text text-anchor="start" x="442.5" y="-319.8" font-family="Helvetica,sans-Serif" font-size="14.00">samples = 19</text>
<text text-anchor="start" x="440" y="-304.8" font-family="Helvetica,sans-Serif" font-size="14.00">value = [17, 2]</text>
</g>
<!-- 9&#45;&gt;17 -->
<g id="edge17" class="edge">
<title>9&#45;&gt;17</title>
<path fill="none" stroke="black" d="M441.95,-400.88C447.24,-392.33 452.99,-383.01 458.51,-374.07"/>
<polygon fill="black" stroke="black" points="461.66,-375.65 463.93,-365.3 455.7,-371.97 461.66,-375.65"/>
</g>
<!-- 11 -->
<g id="node12" class="node">
<title>11</title>
<path fill="#399de5" stroke="black" d="M277,-253.5C277,-253.5 204,-253.5 204,-253.5 198,-253.5 192,-247.5 192,-241.5 192,-241.5 192,-212.5 192,-212.5 192,-206.5 198,-200.5 204,-200.5 204,-200.5 277,-200.5 277,-200.5 283,-200.5 289,-206.5 289,-212.5 289,-212.5 289,-241.5 289,-241.5 289,-247.5 283,-253.5 277,-253.5"/>
<text text-anchor="start" x="211.5" y="-238.3" font-family="Helvetica,sans-Serif" font-size="14.00">gini = 0.0</text>
<text text-anchor="start" x="202.5" y="-223.3" font-family="Helvetica,sans-Serif" font-size="14.00">samples = 9</text>
<text text-anchor="start" x="200" y="-208.3" font-family="Helvetica,sans-Serif" font-size="14.00">value = [0, 9]</text>
</g>
<!-- 10&#45;&gt;11 -->
<g id="edge11" class="edge">
<title>10&#45;&gt;11</title>
<path fill="none" stroke="black" d="M319.51,-296.88C306.02,-285.12 290.85,-271.89 277.44,-260.2"/>
<polygon fill="black" stroke="black" points="279.61,-257.45 269.77,-253.52 275.01,-262.73 279.61,-257.45"/>
</g>
<!-- 12 -->
<g id="node13" class="node">
<title>12</title>
<path fill="#e88e4d" stroke="black" d="M400,-261C400,-261 319,-261 319,-261 313,-261 307,-255 307,-249 307,-249 307,-205 307,-205 307,-199 313,-193 319,-193 319,-193 400,-193 400,-193 406,-193 412,-199 412,-205 412,-205 412,-249 412,-249 412,-255 406,-261 400,-261"/>
<text text-anchor="start" x="320.5" y="-245.8" font-family="Helvetica,sans-Serif" font-size="14.00">x_1 ≤ &#45;0.163</text>
<text text-anchor="start" x="323" y="-230.8" font-family="Helvetica,sans-Serif" font-size="14.00">gini = 0.165</text>
<text text-anchor="start" x="318" y="-215.8" font-family="Helvetica,sans-Serif" font-size="14.00">samples = 11</text>
<text text-anchor="start" x="315" y="-200.8" font-family="Helvetica,sans-Serif" font-size="14.00">value = [10, 1]</text>
</g>
<!-- 10&#45;&gt;12 -->
<g id="edge12" class="edge">
<title>10&#45;&gt;12</title>
<path fill="none" stroke="black" d="M358.15,-296.88C358.31,-288.78 358.48,-279.98 358.65,-271.47"/>
<polygon fill="black" stroke="black" points="362.15,-271.37 358.85,-261.3 355.15,-271.23 362.15,-271.37"/>
</g>
<!-- 13 -->
<g id="node14" class="node">
<title>13</title>
<path fill="#eeab7b" stroke="black" d="M285,-157C285,-157 212,-157 212,-157 206,-157 200,-151 200,-145 200,-145 200,-101 200,-101 200,-95 206,-89 212,-89 212,-89 285,-89 285,-89 291,-89 297,-95 297,-101 297,-101 297,-145 297,-145 297,-151 291,-157 285,-157"/>
<text text-anchor="start" x="209.5" y="-141.8" font-family="Helvetica,sans-Serif" font-size="14.00">x_1 ≤ &#45;0.191</text>
<text text-anchor="start" x="212" y="-126.8" font-family="Helvetica,sans-Serif" font-size="14.00">gini = 0.375</text>
<text text-anchor="start" x="210.5" y="-111.8" font-family="Helvetica,sans-Serif" font-size="14.00">samples = 4</text>
<text text-anchor="start" x="208" y="-96.8" font-family="Helvetica,sans-Serif" font-size="14.00">value = [3, 1]</text>
</g>
<!-- 12&#45;&gt;13 -->
<g id="edge13" class="edge">
<title>12&#45;&gt;13</title>
<path fill="none" stroke="black" d="M323.46,-192.88C313.48,-183.71 302.53,-173.65 292.16,-164.12"/>
<polygon fill="black" stroke="black" points="294.47,-161.49 284.74,-157.3 289.73,-166.64 294.47,-161.49"/>
</g>
<!-- 16 -->
<g id="node17" class="node">
<title>16</title>
<path fill="#e58139" stroke="black" d="M400,-149.5C400,-149.5 327,-149.5 327,-149.5 321,-149.5 315,-143.5 315,-137.5 315,-137.5 315,-108.5 315,-108.5 315,-102.5 321,-96.5 327,-96.5 327,-96.5 400,-96.5 400,-96.5 406,-96.5 412,-102.5 412,-108.5 412,-108.5 412,-137.5 412,-137.5 412,-143.5 406,-149.5 400,-149.5"/>
<text text-anchor="start" x="334.5" y="-134.3" font-family="Helvetica,sans-Serif" font-size="14.00">gini = 0.0</text>
<text text-anchor="start" x="325.5" y="-119.3" font-family="Helvetica,sans-Serif" font-size="14.00">samples = 7</text>
<text text-anchor="start" x="323" y="-104.3" font-family="Helvetica,sans-Serif" font-size="14.00">value = [7, 0]</text>
</g>
<!-- 12&#45;&gt;16 -->
<g id="edge16" class="edge">
<title>12&#45;&gt;16</title>
<path fill="none" stroke="black" d="M360.8,-192.88C361.22,-182.22 361.68,-170.35 362.11,-159.52"/>
<polygon fill="black" stroke="black" points="365.6,-159.65 362.5,-149.52 358.61,-159.38 365.6,-159.65"/>
</g>
<!-- 14 -->
<g id="node15" class="node">
<title>14</title>
<path fill="#e58139" stroke="black" d="M228,-53C228,-53 155,-53 155,-53 149,-53 143,-47 143,-41 143,-41 143,-12 143,-12 143,-6 149,0 155,0 155,0 228,0 228,0 234,0 240,-6 240,-12 240,-12 240,-41 240,-41 240,-47 234,-53 228,-53"/>
<text text-anchor="start" x="162.5" y="-37.8" font-family="Helvetica,sans-Serif" font-size="14.00">gini = 0.0</text>
<text text-anchor="start" x="153.5" y="-22.8" font-family="Helvetica,sans-Serif" font-size="14.00">samples = 3</text>
<text text-anchor="start" x="151" y="-7.8" font-family="Helvetica,sans-Serif" font-size="14.00">value = [3, 0]</text>
</g>
<!-- 13&#45;&gt;14 -->
<g id="edge14" class="edge">
<title>13&#45;&gt;14</title>
<path fill="none" stroke="black" d="M228.56,-88.95C223.27,-80.17 217.53,-70.66 212.2,-61.82"/>
<polygon fill="black" stroke="black" points="215.19,-59.99 207.02,-53.24 209.19,-63.61 215.19,-59.99"/>
</g>
<!-- 15 -->
<g id="node16" class="node">
<title>15</title>
<path fill="#399de5" stroke="black" d="M343,-53C343,-53 270,-53 270,-53 264,-53 258,-47 258,-41 258,-41 258,-12 258,-12 258,-6 264,0 270,0 270,0 343,0 343,0 349,0 355,-6 355,-12 355,-12 355,-41 355,-41 355,-47 349,-53 343,-53"/>
<text text-anchor="start" x="277.5" y="-37.8" font-family="Helvetica,sans-Serif" font-size="14.00">gini = 0.0</text>
<text text-anchor="start" x="268.5" y="-22.8" font-family="Helvetica,sans-Serif" font-size="14.00">samples = 1</text>
<text text-anchor="start" x="266" y="-7.8" font-family="Helvetica,sans-Serif" font-size="14.00">value = [0, 1]</text>
</g>
<!-- 13&#45;&gt;15 -->
<g id="edge15" class="edge">
<title>13&#45;&gt;15</title>
<path fill="none" stroke="black" d="M268.79,-88.95C274.18,-80.17 280.01,-70.66 285.44,-61.82"/>
<polygon fill="black" stroke="black" points="288.46,-63.59 290.7,-53.24 282.49,-59.93 288.46,-63.59"/>
</g>
<!-- 18 -->
<g id="node19" class="node">
<title>18</title>
<path fill="#399de5" stroke="black" d="M519,-253.5C519,-253.5 446,-253.5 446,-253.5 440,-253.5 434,-247.5 434,-241.5 434,-241.5 434,-212.5 434,-212.5 434,-206.5 440,-200.5 446,-200.5 446,-200.5 519,-200.5 519,-200.5 525,-200.5 531,-206.5 531,-212.5 531,-212.5 531,-241.5 531,-241.5 531,-247.5 525,-253.5 519,-253.5"/>
<text text-anchor="start" x="453.5" y="-238.3" font-family="Helvetica,sans-Serif" font-size="14.00">gini = 0.0</text>
<text text-anchor="start" x="444.5" y="-223.3" font-family="Helvetica,sans-Serif" font-size="14.00">samples = 1</text>
<text text-anchor="start" x="442" y="-208.3" font-family="Helvetica,sans-Serif" font-size="14.00">value = [0, 1]</text>
</g>
<!-- 17&#45;&gt;18 -->
<g id="edge18" class="edge">
<title>17&#45;&gt;18</title>
<path fill="none" stroke="black" d="M483.85,-296.88C483.64,-286.22 483.41,-274.35 483.2,-263.52"/>
<polygon fill="black" stroke="black" points="486.7,-263.45 483,-253.52 479.7,-263.59 486.7,-263.45"/>
</g>
<!-- 19 -->
<g id="node20" class="node">
<title>19</title>
<path fill="#e78845" stroke="black" d="M642,-261C642,-261 561,-261 561,-261 555,-261 549,-255 549,-249 549,-249 549,-205 549,-205 549,-199 555,-193 561,-193 561,-193 642,-193 642,-193 648,-193 654,-199 654,-205 654,-205 654,-249 654,-249 654,-255 648,-261 642,-261"/>
<text text-anchor="start" x="564.5" y="-245.8" font-family="Helvetica,sans-Serif" font-size="14.00">x_1 ≤ 0.639</text>
<text text-anchor="start" x="565" y="-230.8" font-family="Helvetica,sans-Serif" font-size="14.00">gini = 0.105</text>
<text text-anchor="start" x="559.5" y="-215.8" font-family="Helvetica,sans-Serif" font-size="14.00">samples = 18</text>
<text text-anchor="start" x="557" y="-200.8" font-family="Helvetica,sans-Serif" font-size="14.00">value = [17, 1]</text>
</g>
<!-- 17&#45;&gt;19 -->
<g id="edge19" class="edge">
<title>17&#45;&gt;19</title>
<path fill="none" stroke="black" d="M522.49,-296.88C533.01,-287.71 544.55,-277.65 555.48,-268.12"/>
<polygon fill="black" stroke="black" points="558.07,-270.51 563.3,-261.3 553.47,-265.23 558.07,-270.51"/>
</g>
<!-- 20 -->
<g id="node21" class="node">
<title>20</title>
<path fill="#e58139" stroke="black" d="M580,-149.5C580,-149.5 507,-149.5 507,-149.5 501,-149.5 495,-143.5 495,-137.5 495,-137.5 495,-108.5 495,-108.5 495,-102.5 501,-96.5 507,-96.5 507,-96.5 580,-96.5 580,-96.5 586,-96.5 592,-102.5 592,-108.5 592,-108.5 592,-137.5 592,-137.5 592,-143.5 586,-149.5 580,-149.5"/>
<text text-anchor="start" x="514.5" y="-134.3" font-family="Helvetica,sans-Serif" font-size="14.00">gini = 0.0</text>
<text text-anchor="start" x="505.5" y="-119.3" font-family="Helvetica,sans-Serif" font-size="14.00">samples = 9</text>
<text text-anchor="start" x="503" y="-104.3" font-family="Helvetica,sans-Serif" font-size="14.00">value = [9, 0]</text>
</g>
<!-- 19&#45;&gt;20 -->
<g id="edge20" class="edge">
<title>19&#45;&gt;20</title>
<path fill="none" stroke="black" d="M582.67,-192.88C576.42,-181.89 569.44,-169.62 563.13,-158.52"/>
<polygon fill="black" stroke="black" points="566,-156.48 558.01,-149.52 559.91,-159.94 566,-156.48"/>
</g>
<!-- 21 -->
<g id="node22" class="node">
<title>21</title>
<path fill="#e89152" stroke="black" d="M695,-157C695,-157 622,-157 622,-157 616,-157 610,-151 610,-145 610,-145 610,-101 610,-101 610,-95 616,-89 622,-89 622,-89 695,-89 695,-89 701,-89 707,-95 707,-101 707,-101 707,-145 707,-145 707,-151 701,-157 695,-157"/>
<text text-anchor="start" x="621.5" y="-141.8" font-family="Helvetica,sans-Serif" font-size="14.00">x_1 ≤ 0.701</text>
<text text-anchor="start" x="622" y="-126.8" font-family="Helvetica,sans-Serif" font-size="14.00">gini = 0.198</text>
<text text-anchor="start" x="620.5" y="-111.8" font-family="Helvetica,sans-Serif" font-size="14.00">samples = 9</text>
<text text-anchor="start" x="618" y="-96.8" font-family="Helvetica,sans-Serif" font-size="14.00">value = [8, 1]</text>
</g>
<!-- 19&#45;&gt;21 -->
<g id="edge21" class="edge">
<title>19&#45;&gt;21</title>
<path fill="none" stroke="black" d="M620.01,-192.88C624.78,-184.33 629.99,-175.01 634.99,-166.07"/>
<polygon fill="black" stroke="black" points="638.07,-167.74 639.89,-157.3 631.96,-164.32 638.07,-167.74"/>
</g>
<!-- 22 -->
<g id="node23" class="node">
<title>22</title>
<path fill="#399de5" stroke="black" d="M637,-53C637,-53 564,-53 564,-53 558,-53 552,-47 552,-41 552,-41 552,-12 552,-12 552,-6 558,0 564,0 564,0 637,0 637,0 643,0 649,-6 649,-12 649,-12 649,-41 649,-41 649,-47 643,-53 637,-53"/>
<text text-anchor="start" x="571.5" y="-37.8" font-family="Helvetica,sans-Serif" font-size="14.00">gini = 0.0</text>
<text text-anchor="start" x="562.5" y="-22.8" font-family="Helvetica,sans-Serif" font-size="14.00">samples = 1</text>
<text text-anchor="start" x="560" y="-7.8" font-family="Helvetica,sans-Serif" font-size="14.00">value = [0, 1]</text>
</g>
<!-- 21&#45;&gt;22 -->
<g id="edge22" class="edge">
<title>21&#45;&gt;22</title>
<path fill="none" stroke="black" d="M638.21,-88.95C632.82,-80.17 626.99,-70.66 621.56,-61.82"/>
<polygon fill="black" stroke="black" points="624.51,-59.93 616.3,-53.24 618.54,-63.59 624.51,-59.93"/>
</g>
<!-- 23 -->
<g id="node24" class="node">
<title>23</title>
<path fill="#e58139" stroke="black" d="M752,-53C752,-53 679,-53 679,-53 673,-53 667,-47 667,-41 667,-41 667,-12 667,-12 667,-6 673,0 679,0 679,0 752,0 752,0 758,0 764,-6 764,-12 764,-12 764,-41 764,-41 764,-47 758,-53 752,-53"/>
<text text-anchor="start" x="686.5" y="-37.8" font-family="Helvetica,sans-Serif" font-size="14.00">gini = 0.0</text>
<text text-anchor="start" x="677.5" y="-22.8" font-family="Helvetica,sans-Serif" font-size="14.00">samples = 8</text>
<text text-anchor="start" x="675" y="-7.8" font-family="Helvetica,sans-Serif" font-size="14.00">value = [8, 0]</text>
</g>
<!-- 21&#45;&gt;23 -->
<g id="edge23" class="edge">
<title>21&#45;&gt;23</title>
<path fill="none" stroke="black" d="M678.44,-88.95C683.73,-80.17 689.47,-70.66 694.8,-61.82"/>
<polygon fill="black" stroke="black" points="697.81,-63.61 699.98,-53.24 691.81,-59.99 697.81,-63.61"/>
</g>
</g>
</svg>
