<?xml version="1.0" encoding="UTF-8" standalone="no"?>
<!DOCTYPE svg PUBLIC "-//W3C//DTD SVG 1.1//EN"
 "http://www.w3.org/Graphics/SVG/1.1/DTD/svg11.dtd">
<!-- Generated by graphviz version 2.48.0 (20210717.1556)
 -->
<!-- Title: Tree Pages: 1 -->
<svg width="597pt" height="581pt"
 viewBox="0.00 0.00 596.50 581.00" xmlns="http://www.w3.org/2000/svg" xmlns:xlink="http://www.w3.org/1999/xlink">
<g id="graph0" class="graph" transform="scale(1 1) rotate(0) translate(4 577)">
<title>Tree</title>
<polygon fill="white" stroke="transparent" points="-4,4 -4,-577 592.5,-577 592.5,4 -4,4"/>
<!-- 0 -->
<g id="node1" class="node">
<title>0</title>
<path fill="#ffffff" stroke="black" d="M278,-573C278,-573 189,-573 189,-573 183,-573 177,-567 177,-561 177,-561 177,-517 177,-517 177,-511 183,-505 189,-505 189,-505 278,-505 278,-505 284,-505 290,-511 290,-517 290,-517 290,-561 290,-561 290,-567 284,-573 278,-573"/>
<text text-anchor="start" x="194.5" y="-557.8" font-family="Helvetica,sans-Serif" font-size="14.00">x_2 ≤ &#45;0.092</text>
<text text-anchor="start" x="204.5" y="-542.8" font-family="Helvetica,sans-Serif" font-size="14.00">gini = 0.5</text>
<text text-anchor="start" x="187.5" y="-527.8" font-family="Helvetica,sans-Serif" font-size="14.00">samples = 100</text>
<text text-anchor="start" x="185" y="-512.8" font-family="Helvetica,sans-Serif" font-size="14.00">value = [50, 50]</text>
</g>
<!-- 1 -->
<g id="node2" class="node">
<title>1</title>
<path fill="#41a1e6" stroke="black" d="M211,-469C211,-469 130,-469 130,-469 124,-469 118,-463 118,-457 118,-457 118,-413 118,-413 118,-407 124,-401 130,-401 130,-401 211,-401 211,-401 217,-401 223,-407 223,-413 223,-413 223,-457 223,-457 223,-463 217,-469 211,-469"/>
<text text-anchor="start" x="133.5" y="-453.8" font-family="Helvetica,sans-Serif" font-size="14.00">x_1 ≤ 1.195</text>
<text text-anchor="start" x="134" y="-438.8" font-family="Helvetica,sans-Serif" font-size="14.00">gini = 0.071</text>
<text text-anchor="start" x="128.5" y="-423.8" font-family="Helvetica,sans-Serif" font-size="14.00">samples = 27</text>
<text text-anchor="start" x="126" y="-408.8" font-family="Helvetica,sans-Serif" font-size="14.00">value = [1, 26]</text>
</g>
<!-- 0&#45;&gt;1 -->
<g id="edge1" class="edge">
<title>0&#45;&gt;1</title>
<path fill="none" stroke="black" d="M213.05,-504.88C207.76,-496.33 202.01,-487.01 196.49,-478.07"/>
<polygon fill="black" stroke="black" points="199.3,-475.97 191.07,-469.3 193.34,-479.65 199.3,-475.97"/>
<text text-anchor="middle" x="185.32" y="-489.93" font-family="Helvetica,sans-Serif" font-size="14.00">True</text>
</g>
<!-- 4 -->
<g id="node5" class="node">
<title>4</title>
<path fill="#f2bf9a" stroke="black" d="M342,-469C342,-469 253,-469 253,-469 247,-469 241,-463 241,-457 241,-457 241,-413 241,-413 241,-407 247,-401 253,-401 253,-401 342,-401 342,-401 348,-401 354,-407 354,-413 354,-413 354,-457 354,-457 354,-463 348,-469 342,-469"/>
<text text-anchor="start" x="264.5" y="-453.8" font-family="Helvetica,sans-Serif" font-size="14.00">x_1 ≤ 1.36</text>
<text text-anchor="start" x="261" y="-438.8" font-family="Helvetica,sans-Serif" font-size="14.00">gini = 0.441</text>
<text text-anchor="start" x="255.5" y="-423.8" font-family="Helvetica,sans-Serif" font-size="14.00">samples = 73</text>
<text text-anchor="start" x="249" y="-408.8" font-family="Helvetica,sans-Serif" font-size="14.00">value = [49, 24]</text>
</g>
<!-- 0&#45;&gt;4 -->
<g id="edge4" class="edge">
<title>0&#45;&gt;4</title>
<path fill="none" stroke="black" d="M254.28,-504.88C259.7,-496.24 265.61,-486.82 271.28,-477.79"/>
<polygon fill="black" stroke="black" points="274.26,-479.63 276.61,-469.3 268.33,-475.91 274.26,-479.63"/>
<text text-anchor="middle" x="282.18" y="-489.97" font-family="Helvetica,sans-Serif" font-size="14.00">False</text>
</g>
<!-- 2 -->
<g id="node3" class="node">
<title>2</title>
<path fill="#399de5" stroke="black" d="M93,-357.5C93,-357.5 12,-357.5 12,-357.5 6,-357.5 0,-351.5 0,-345.5 0,-345.5 0,-316.5 0,-316.5 0,-310.5 6,-304.5 12,-304.5 12,-304.5 93,-304.5 93,-304.5 99,-304.5 105,-310.5 105,-316.5 105,-316.5 105,-345.5 105,-345.5 105,-351.5 99,-357.5 93,-357.5"/>
<text text-anchor="start" x="23.5" y="-342.3" font-family="Helvetica,sans-Serif" font-size="14.00">gini = 0.0</text>
<text text-anchor="start" x="10.5" y="-327.3" font-family="Helvetica,sans-Serif" font-size="14.00">samples = 19</text>
<text text-anchor="start" x="8" y="-312.3" font-family="Helvetica,sans-Serif" font-size="14.00">value = [0, 19]</text>
</g>
<!-- 1&#45;&gt;2 -->
<g id="edge2" class="edge">
<title>1&#45;&gt;2</title>
<path fill="none" stroke="black" d="M132.19,-400.88C118.58,-389.12 103.28,-375.89 89.75,-364.2"/>
<polygon fill="black" stroke="black" points="91.88,-361.41 82.02,-357.52 87.3,-366.71 91.88,-361.41"/>
</g>
<!-- 3 -->
<g id="node4" class="node">
<title>3</title>
<path fill="#55abe9" stroke="black" d="M208,-357.5C208,-357.5 135,-357.5 135,-357.5 129,-357.5 123,-351.5 123,-345.5 123,-345.5 123,-316.5 123,-316.5 123,-310.5 129,-304.5 135,-304.5 135,-304.5 208,-304.5 208,-304.5 214,-304.5 220,-310.5 220,-316.5 220,-316.5 220,-345.5 220,-345.5 220,-351.5 214,-357.5 208,-357.5"/>
<text text-anchor="start" x="135" y="-342.3" font-family="Helvetica,sans-Serif" font-size="14.00">gini = 0.219</text>
<text text-anchor="start" x="133.5" y="-327.3" font-family="Helvetica,sans-Serif" font-size="14.00">samples = 8</text>
<text text-anchor="start" x="131" y="-312.3" font-family="Helvetica,sans-Serif" font-size="14.00">value = [1, 7]</text>
</g>
<!-- 1&#45;&gt;3 -->
<g id="edge3" class="edge">
<title>1&#45;&gt;3</title>
<path fill="none" stroke="black" d="M170.82,-400.88C170.93,-390.33 171.04,-378.6 171.15,-367.85"/>
<polygon fill="black" stroke="black" points="174.65,-367.55 171.25,-357.52 167.65,-367.49 174.65,-367.55"/>
</g>
<!-- 5 -->
<g id="node6" class="node">
<title>5</title>
<path fill="#eba069" stroke="black" d="M341,-365C341,-365 252,-365 252,-365 246,-365 240,-359 240,-353 240,-353 240,-309 240,-309 240,-303 246,-297 252,-297 252,-297 341,-297 341,-297 347,-297 353,-303 353,-309 353,-309 353,-353 353,-353 353,-359 347,-365 341,-365"/>
<text text-anchor="start" x="257.5" y="-349.8" font-family="Helvetica,sans-Serif" font-size="14.00">x_1 ≤ &#45;0.379</text>
<text text-anchor="start" x="260" y="-334.8" font-family="Helvetica,sans-Serif" font-size="14.00">gini = 0.316</text>
<text text-anchor="start" x="254.5" y="-319.8" font-family="Helvetica,sans-Serif" font-size="14.00">samples = 61</text>
<text text-anchor="start" x="248" y="-304.8" font-family="Helvetica,sans-Serif" font-size="14.00">value = [49, 12]</text>
</g>
<!-- 4&#45;&gt;5 -->
<g id="edge5" class="edge">
<title>4&#45;&gt;5</title>
<path fill="none" stroke="black" d="M297.18,-400.88C297.1,-392.78 297.01,-383.98 296.93,-375.47"/>
<polygon fill="black" stroke="black" points="300.42,-375.26 296.83,-365.3 293.42,-375.33 300.42,-375.26"/>
</g>
<!-- 14 -->
<g id="node15" class="node">
<title>14</title>
<path fill="#399de5" stroke="black" d="M464,-357.5C464,-357.5 383,-357.5 383,-357.5 377,-357.5 371,-351.5 371,-345.5 371,-345.5 371,-316.5 371,-316.5 371,-310.5 377,-304.5 383,-304.5 383,-304.5 464,-304.5 464,-304.5 470,-304.5 476,-310.5 476,-316.5 476,-316.5 476,-345.5 476,-345.5 476,-351.5 470,-357.5 464,-357.5"/>
<text text-anchor="start" x="394.5" y="-342.3" font-family="Helvetica,sans-Serif" font-size="14.00">gini = 0.0</text>
<text text-anchor="start" x="381.5" y="-327.3" font-family="Helvetica,sans-Serif" font-size="14.00">samples = 12</text>
<text text-anchor="start" x="379" y="-312.3" font-family="Helvetica,sans-Serif" font-size="14.00">value = [0, 12]</text>
</g>
<!-- 4&#45;&gt;14 -->
<g id="edge14" class="edge">
<title>4&#45;&gt;14</title>
<path fill="none" stroke="black" d="M338.41,-400.88C353.08,-389.01 369.58,-375.65 384.12,-363.88"/>
<polygon fill="black" stroke="black" points="386.41,-366.53 391.98,-357.52 382,-361.09 386.41,-366.53"/>
</g>
<!-- 6 -->
<g id="node7" class="node">
<title>6</title>
<path fill="#e58139" stroke="black" d="M274,-253.5C274,-253.5 193,-253.5 193,-253.5 187,-253.5 181,-247.5 181,-241.5 181,-241.5 181,-212.5 181,-212.5 181,-206.5 187,-200.5 193,-200.5 193,-200.5 274,-200.5 274,-200.5 280,-200.5 286,-206.5 286,-212.5 286,-212.5 286,-241.5 286,-241.5 286,-247.5 280,-253.5 274,-253.5"/>
<text text-anchor="start" x="204.5" y="-238.3" font-family="Helvetica,sans-Serif" font-size="14.00">gini = 0.0</text>
<text text-anchor="start" x="191.5" y="-223.3" font-family="Helvetica,sans-Serif" font-size="14.00">samples = 22</text>
<text text-anchor="start" x="189" y="-208.3" font-family="Helvetica,sans-Serif" font-size="14.00">value = [22, 0]</text>
</g>
<!-- 5&#45;&gt;6 -->
<g id="edge6" class="edge">
<title>5&#45;&gt;6</title>
<path fill="none" stroke="black" d="M276.05,-296.88C269.18,-285.78 261.52,-273.37 254.61,-262.18"/>
<polygon fill="black" stroke="black" points="257.5,-260.19 249.26,-253.52 251.54,-263.87 257.5,-260.19"/>
</g>
<!-- 7 -->
<g id="node8" class="node">
<title>7</title>
<path fill="#f1b991" stroke="black" d="M405,-261C405,-261 316,-261 316,-261 310,-261 304,-255 304,-249 304,-249 304,-205 304,-205 304,-199 310,-193 316,-193 316,-193 405,-193 405,-193 411,-193 417,-199 417,-205 417,-205 417,-249 417,-249 417,-255 411,-261 405,-261"/>
<text text-anchor="start" x="323.5" y="-245.8" font-family="Helvetica,sans-Serif" font-size="14.00">x_1 ≤ 0.466</text>
<text text-anchor="start" x="324" y="-230.8" font-family="Helvetica,sans-Serif" font-size="14.00">gini = 0.426</text>
<text text-anchor="start" x="318.5" y="-215.8" font-family="Helvetica,sans-Serif" font-size="14.00">samples = 39</text>
<text text-anchor="start" x="312" y="-200.8" font-family="Helvetica,sans-Serif" font-size="14.00">value = [27, 12]</text>
</g>
<!-- 5&#45;&gt;7 -->
<g id="edge7" class="edge">
<title>5&#45;&gt;7</title>
<path fill="none" stroke="black" d="M317.28,-296.88C322.7,-288.24 328.61,-278.82 334.28,-269.79"/>
<polygon fill="black" stroke="black" points="337.26,-271.63 339.61,-261.3 331.33,-267.91 337.26,-271.63"/>
</g>
<!-- 8 -->
<g id="node9" class="node">
<title>8</title>
<path fill="#ffffff" stroke="black" d="M341,-157C341,-157 252,-157 252,-157 246,-157 240,-151 240,-145 240,-145 240,-101 240,-101 240,-95 246,-89 252,-89 252,-89 341,-89 341,-89 347,-89 353,-95 353,-101 353,-101 353,-145 353,-145 353,-151 347,-157 341,-157"/>
<text text-anchor="start" x="259.5" y="-141.8" font-family="Helvetica,sans-Serif" font-size="14.00">x_2 ≤ 0.769</text>
<text text-anchor="start" x="267.5" y="-126.8" font-family="Helvetica,sans-Serif" font-size="14.00">gini = 0.5</text>
<text text-anchor="start" x="254.5" y="-111.8" font-family="Helvetica,sans-Serif" font-size="14.00">samples = 20</text>
<text text-anchor="start" x="248" y="-96.8" font-family="Helvetica,sans-Serif" font-size="14.00">value = [10, 10]</text>
</g>
<!-- 7&#45;&gt;8 -->
<g id="edge8" class="edge">
<title>7&#45;&gt;8</title>
<path fill="none" stroke="black" d="M339.72,-192.88C334.3,-184.24 328.39,-174.82 322.72,-165.79"/>
<polygon fill="black" stroke="black" points="325.67,-163.91 317.39,-157.3 319.74,-167.63 325.67,-163.91"/>
</g>
<!-- 11 -->
<g id="node12" class="node">
<title>11</title>
<path fill="#e89050" stroke="black" d="M464,-157C464,-157 383,-157 383,-157 377,-157 371,-151 371,-145 371,-145 371,-101 371,-101 371,-95 377,-89 383,-89 383,-89 464,-89 464,-89 470,-89 476,-95 476,-101 476,-101 476,-145 476,-145 476,-151 470,-157 464,-157"/>
<text text-anchor="start" x="386.5" y="-141.8" font-family="Helvetica,sans-Serif" font-size="14.00">x_1 ≤ 0.639</text>
<text text-anchor="start" x="387" y="-126.8" font-family="Helvetica,sans-Serif" font-size="14.00">gini = 0.188</text>
<text text-anchor="start" x="381.5" y="-111.8" font-family="Helvetica,sans-Serif" font-size="14.00">samples = 19</text>
<text text-anchor="start" x="379" y="-96.8" font-family="Helvetica,sans-Serif" font-size="14.00">value = [17, 2]</text>
</g>
<!-- 7&#45;&gt;11 -->
<g id="edge11" class="edge">
<title>7&#45;&gt;11</title>
<path fill="none" stroke="black" d="M380.95,-192.88C386.24,-184.33 391.99,-175.01 397.51,-166.07"/>
<polygon fill="black" stroke="black" points="400.66,-167.65 402.93,-157.3 394.7,-163.97 400.66,-167.65"/>
</g>
<!-- 9 -->
<g id="node10" class="node">
<title>9</title>
<path fill="#399de5" stroke="black" d="M216,-53C216,-53 143,-53 143,-53 137,-53 131,-47 131,-41 131,-41 131,-12 131,-12 131,-6 137,0 143,0 143,0 216,0 216,0 222,0 228,-6 228,-12 228,-12 228,-41 228,-41 228,-47 222,-53 216,-53"/>
<text text-anchor="start" x="150.5" y="-37.8" font-family="Helvetica,sans-Serif" font-size="14.00">gini = 0.0</text>
<text text-anchor="start" x="141.5" y="-22.8" font-family="Helvetica,sans-Serif" font-size="14.00">samples = 9</text>
<text text-anchor="start" x="139" y="-7.8" font-family="Helvetica,sans-Serif" font-size="14.00">value = [0, 9]</text>
</g>
<!-- 8&#45;&gt;9 -->
<g id="edge9" class="edge">
<title>8&#45;&gt;9</title>
<path fill="none" stroke="black" d="M255.58,-88.95C243.8,-79.43 230.97,-69.07 219.26,-59.62"/>
<polygon fill="black" stroke="black" points="221.34,-56.8 211.36,-53.24 216.94,-62.24 221.34,-56.8"/>
</g>
<!-- 10 -->
<g id="node11" class="node">
<title>10</title>
<path fill="#e88e4d" stroke="black" d="M339,-53C339,-53 258,-53 258,-53 252,-53 246,-47 246,-41 246,-41 246,-12 246,-12 246,-6 252,0 258,0 258,0 339,0 339,0 345,0 351,-6 351,-12 351,-12 351,-41 351,-41 351,-47 345,-53 339,-53"/>
<text text-anchor="start" x="262" y="-37.8" font-family="Helvetica,sans-Serif" font-size="14.00">gini = 0.165</text>
<text text-anchor="start" x="257" y="-22.8" font-family="Helvetica,sans-Serif" font-size="14.00">samples = 11</text>
<text text-anchor="start" x="254" y="-7.8" font-family="Helvetica,sans-Serif" font-size="14.00">value = [10, 1]</text>
</g>
<!-- 8&#45;&gt;10 -->
<g id="edge10" class="edge">
<title>8&#45;&gt;10</title>
<path fill="none" stroke="black" d="M297.2,-88.95C297.37,-80.72 297.56,-71.85 297.74,-63.48"/>
<polygon fill="black" stroke="black" points="301.24,-63.31 297.96,-53.24 294.24,-63.16 301.24,-63.31"/>
</g>
<!-- 12 -->
<g id="node13" class="node">
<title>12</title>
<path fill="#e58139" stroke="black" d="M458,-53C458,-53 385,-53 385,-53 379,-53 373,-47 373,-41 373,-41 373,-12 373,-12 373,-6 379,0 385,0 385,0 458,0 458,0 464,0 470,-6 470,-12 470,-12 470,-41 470,-41 470,-47 464,-53 458,-53"/>
<text text-anchor="start" x="392.5" y="-37.8" font-family="Helvetica,sans-Serif" font-size="14.00">gini = 0.0</text>
<text text-anchor="start" x="383.5" y="-22.8" font-family="Helvetica,sans-Serif" font-size="14.00">samples = 9</text>
<text text-anchor="start" x="381" y="-7.8" font-family="Helvetica,sans-Serif" font-size="14.00">value = [9, 0]</text>
</g>
<!-- 11&#45;&gt;12 -->
<g id="edge12" class="edge">
<title>11&#45;&gt;12</title>
<path fill="none" stroke="black" d="M422.8,-88.95C422.63,-80.72 422.44,-71.85 422.26,-63.48"/>
<polygon fill="black" stroke="black" points="425.76,-63.16 422.04,-53.24 418.76,-63.31 425.76,-63.16"/>
</g>
<!-- 13 -->
<g id="node14" class="node">
<title>13</title>
<path fill="#eca06a" stroke="black" d="M576.5,-53C576.5,-53 500.5,-53 500.5,-53 494.5,-53 488.5,-47 488.5,-41 488.5,-41 488.5,-12 488.5,-12 488.5,-6 494.5,0 500.5,0 500.5,0 576.5,0 576.5,0 582.5,0 588.5,-6 588.5,-12 588.5,-12 588.5,-41 588.5,-41 588.5,-47 582.5,-53 576.5,-53"/>
<text text-anchor="start" x="506" y="-37.8" font-family="Helvetica,sans-Serif" font-size="14.00">gini = 0.32</text>
<text text-anchor="start" x="496.5" y="-22.8" font-family="Helvetica,sans-Serif" font-size="14.00">samples = 10</text>
<text text-anchor="start" x="498" y="-7.8" font-family="Helvetica,sans-Serif" font-size="14.00">value = [8, 2]</text>
</g>
<!-- 11&#45;&gt;13 -->
<g id="edge13" class="edge">
<title>11&#45;&gt;13</title>
<path fill="none" stroke="black" d="M463.72,-88.95C475.3,-79.43 487.91,-69.07 499.42,-59.62"/>
<polygon fill="black" stroke="black" points="501.68,-62.29 507.18,-53.24 497.23,-56.88 501.68,-62.29"/>
</g>
</g>
</svg>
